# xmcd
#
# Track frame offsets:
#	150
#	21576
#	40946
#	57163
#	67691
#	84503
#	98775
#	113729
#	129070
#	144323
#	155839
#	173222
#
# Disc length: 2509 seconds
#
# Revision: 1
# Processed by: cddbd v1.5.1PL0 Copyright (c) Steve Scherf et al.
# Submitted via: audiograbber 1.83.01
#
DISCID=9609cb0c
DTITLE=VARIOUS ARTIST - Backyard Barbecue - Williams Sonoma
DYEAR=2004
DGENRE=Country
TTITLE0=Lucinda Williams - Car wheels on a gravel road
TTITLE1=The Peter Malick Group ft. Norah Jones - Deceptively yours
TTITLE2=Lyle Lovett - Big dog
TTITLE3=Dwight Yoakam - Crazy little thing called love
TTITLE4=Corey Harris and Henry Butler - Down home livin'
TTITLE5=Alison Krauss and Union Station - The lucky one
TTITLE6=Clem Snide - All green
TTITLE7=Jesse Harris - You were on my mind
TTITLE8=Robert Cray - 24-7 man
TTITLE9=Johnny Cash - I walk the line
TTITLE10=John Hiatt - Drive south
TTITLE11=Peter Wolf - Never like this before
EXTD=
EXTT0=
EXTT1=
EXTT2=
EXTT3=
EXTT4=
EXTT5=
EXTT6=
EXTT7=
EXTT8=
EXTT9=
EXTT10=
EXTT11=
PLAYORDER=
